<?xml version="1.0" encoding="UTF-8" standalone="no"?>
<!-- Created with Inkscape (http://www.inkscape.org/) -->

<svg
   xmlns:dc="http://purl.org/dc/elements/1.1/"
   xmlns:cc="http://creativecommons.org/ns#"
   xmlns:rdf="http://www.w3.org/1999/02/22-rdf-syntax-ns#"
   xmlns:svg="http://www.w3.org/2000/svg"
   xmlns="http://www.w3.org/2000/svg"
   xmlns:sodipodi="http://sodipodi.sourceforge.net/DTD/sodipodi-0.dtd"
   xmlns:inkscape="http://www.inkscape.org/namespaces/inkscape"
   width="151.59656"
   height="149.10181"
   id="svg15465"
   version="1.1"
   inkscape:version="0.48.4 r9939"
   sodipodi:docname="cony.svg">
  <defs
     id="defs15467" />
  <sodipodi:namedview
     id="base"
     pagecolor="#ffffff"
     bordercolor="#666666"
     borderopacity="1.0"
     inkscape:pageopacity="0.0"
     inkscape:pageshadow="2"
     inkscape:zoom="0.98994949"
     inkscape:cx="-41.499237"
     inkscape:cy="94.667794"
     inkscape:document-units="px"
     inkscape:current-layer="layer1"
     showgrid="false"
     inkscape:window-width="1920"
     inkscape:window-height="1017"
     inkscape:window-x="-8"
     inkscape:window-y="-8"
     inkscape:window-maximized="1"
     fit-margin-top="0"
     fit-margin-left="0"
     fit-margin-right="0"
     fit-margin-bottom="0" />
  <metadata
     id="metadata15470">
    <rdf:RDF>
      <cc:Work
         rdf:about="">
        <dc:format>image/svg+xml</dc:format>
        <dc:type
           rdf:resource="http://purl.org/dc/dcmitype/StillImage" />
        <dc:title></dc:title>
      </cc:Work>
    </rdf:RDF>
  </metadata>
  <g
     inkscape:label="Layer 1"
     inkscape:groupmode="layer"
     id="layer1"
     transform="translate(-197.95306,-488.89744)">
    <g
       id="g8300"
       transform="matrix(1.25,0,0,-1.25,229.51038,637.7076)">
      <path
         inkscape:connector-curvature="0"
         d="m 0,0 c -0.988,-0.024 -1.976,-0.041 -2.964,-0.037 -1.903,0.008 -4.614,-0.476 -6.342,0.521 -1.923,1.11 -1.47,3.868 0.068,5.019 1.195,0.892 2.834,1.425 4.267,1.777 C 4.187,9.546 20.902,6.503 22.96,5.071 25.016,3.639 23.636,0.536 19.697,-0.056 17.49,-0.388 15.185,-0.173 12.97,-0.059 8.848,0.154 4.771,0.128 0.646,0.015 0.432,0.009 0.215,0.005 0,0"
         style="fill:#b6b7b8;fill-opacity:1;fill-rule:nonzero;stroke:none"
         id="path8302" />
    </g>
    <g
       id="g8304"
       transform="matrix(1.25,0,0,-1.25,233.79026,509.01498)">
      <path
         inkscape:connector-curvature="0"
         d="m 0,0 c 1.007,-8.62 -0.455,-15.642 -3.597,-16.009 -3.139,-0.367 -6.633,6.368 -7.26,15.024 -0.638,8.798 1.093,16.177 4.234,16.545 C -3.482,15.927 -1.008,8.619 0,0"
         style="fill:#ffffff;fill-opacity:1;fill-rule:nonzero;stroke:none"
         id="path8306" />
    </g>
    <g
       id="g8308"
       transform="matrix(1.25,0,0,-1.25,233.79026,509.01498)">
      <path
         inkscape:connector-curvature="0"
         d="m 0,0 c 1.007,-8.62 -0.455,-15.642 -3.597,-16.009 -3.139,-0.367 -6.633,6.368 -7.26,15.024 -0.638,8.798 1.093,16.177 4.234,16.545 C -3.482,15.927 -1.008,8.619 0,0 z"
         style="fill:none;stroke:#332d2b;stroke-width:1.00800002;stroke-linecap:butt;stroke-linejoin:miter;stroke-miterlimit:4;stroke-opacity:1;stroke-dasharray:none"
         id="path8310" />
    </g>
    <g
       id="g8312"
       transform="matrix(1.25,0,0,-1.25,243.66451,527.2401)">
      <path
         inkscape:connector-curvature="0"
         d="m 0,0 c -3.015,0.321 -4.712,7.585 -3.794,16.226 0.918,8.638 3.838,14.248 6.851,13.928 0,0 3.593,0.846 3.003,-9.717 C 5.469,9.879 3.475,8.77 3.475,8.77 L 0.299,0"
         style="fill:#ffffff;fill-opacity:1;fill-rule:nonzero;stroke:#332d2b;stroke-width:1.00800002;stroke-linecap:butt;stroke-linejoin:miter;stroke-miterlimit:4;stroke-opacity:1;stroke-dasharray:none"
         id="path8314" />
    </g>
    <g
       id="g8316"
       transform="matrix(1.25,0,0,-1.25,219.29439,557.64048)">
      <path
         inkscape:connector-curvature="0"
         d="m 0,0 -2.492,-3.213 -11.394,-19.533 c 0,0 -2.683,-0.938 -2.683,-3.522 0,0 -0.049,-1.971 2.487,-1.009 0,0 -0.591,-2.045 0.641,-2.387 1.229,-0.347 2.042,1.452 2.042,1.452 0,0 -0.074,-1.65 0.96,-1.7 1.035,-0.048 2.315,0.369 2.34,3.521 0,0 4.886,4.235 6.364,6.302 0,0 1.662,-28.511 4.837,-33.605 0,0 -5.133,-3.989 -0.739,-7.09 4.396,-3.105 9.75,0.7 10.563,4.32 0,0 -0.073,1.846 0.368,6.388 0.443,4.543 2.181,12.927 2.181,12.927 0,0 4.023,-15.093 4.369,-15.683 0,0 -1.637,-4.26 1.466,-6.624 3.101,-2.363 7.791,-2.215 9.195,-0.59 1.402,1.625 1.476,4.985 -2.106,7.385 0,0 2.106,14.329 2.031,22.086 -0.074,7.754 0.075,11.594 0.075,11.594 l 5.058,-5.981 c 0,0 -0.75,-3.004 0.826,-3.547 1.576,-0.54 2.166,1.061 1.87,2.684 0,0 0.861,-2.781 2.807,-1.847 1.945,0.937 -0.295,3.25 -0.295,3.25 0,0 2.117,-1.55 2.929,-0.173 0.813,1.379 -1.871,3.225 -1.871,3.225 0,0 -3.704,12.329 -9.139,19.472 L 10.341,0.444 0,0 z"
         style="fill:#ffffff;fill-opacity:1;fill-rule:nonzero;stroke:none"
         id="path8318" />
    </g>
    <g
       id="g8320"
       transform="matrix(1.25,0,0,-1.25,219.29439,557.64048)">
      <path
         inkscape:connector-curvature="0"
         d="m 0,0 -2.492,-3.213 -11.394,-19.533 c 0,0 -2.683,-0.938 -2.683,-3.522 0,0 -0.049,-1.971 2.487,-1.009 0,0 -0.591,-2.045 0.641,-2.387 1.229,-0.347 2.042,1.452 2.042,1.452 0,0 -0.074,-1.65 0.96,-1.7 1.035,-0.048 2.315,0.369 2.34,3.521 0,0 4.886,4.235 6.364,6.302 0,0 1.662,-28.511 4.837,-33.605 0,0 -5.133,-3.989 -0.739,-7.09 4.396,-3.105 9.75,0.7 10.563,4.32 0,0 -0.073,1.846 0.368,6.388 0.443,4.543 2.181,12.927 2.181,12.927 0,0 4.023,-15.093 4.369,-15.683 0,0 -1.637,-4.26 1.466,-6.624 3.101,-2.363 7.791,-2.215 9.195,-0.59 1.402,1.625 1.476,4.985 -2.106,7.385 0,0 2.106,14.329 2.031,22.086 -0.074,7.754 0.075,11.594 0.075,11.594 l 5.058,-5.981 c 0,0 -0.75,-3.004 0.826,-3.547 1.576,-0.54 2.166,1.061 1.87,2.684 0,0 0.861,-2.781 2.807,-1.847 1.945,0.937 -0.295,3.25 -0.295,3.25 0,0 2.117,-1.55 2.929,-0.173 0.813,1.379 -1.871,3.225 -1.871,3.225 0,0 -3.704,12.329 -9.139,19.472 L 10.341,0.444 0,0 z"
         style="fill:none;stroke:#332d2b;stroke-width:1.00800002;stroke-linecap:round;stroke-linejoin:round;stroke-miterlimit:4;stroke-opacity:1;stroke-dasharray:none"
         id="path8322" />
    </g>
    <g
       id="g8324"
       transform="matrix(1.25,0,0,-1.25,226.72726,572.50373)">
      <path
         inkscape:connector-curvature="0"
         d="M 0,0 3.619,0"
         style="fill:none;stroke:#332d2b;stroke-width:1.00800002;stroke-linecap:round;stroke-linejoin:miter;stroke-miterlimit:4;stroke-opacity:1;stroke-dasharray:none"
         id="path8326" />
    </g>
    <g
       id="g8328"
       transform="matrix(1.25,0,0,-1.25,226.72726,580.30523)">
      <path
         inkscape:connector-curvature="0"
         d="M 0,0 4.874,0"
         style="fill:none;stroke:#332d2b;stroke-width:1.00800002;stroke-linecap:round;stroke-linejoin:miter;stroke-miterlimit:4;stroke-opacity:1;stroke-dasharray:none"
         id="path8330" />
    </g>
    <g
       id="g8332"
       transform="matrix(1.25,0,0,-1.25,228.98926,572.50373)">
      <path
         inkscape:connector-curvature="0"
         d="M 0,0 0,-6.056"
         style="fill:none;stroke:#332d2b;stroke-width:1.00800002;stroke-linecap:round;stroke-linejoin:miter;stroke-miterlimit:4;stroke-opacity:1;stroke-dasharray:none"
         id="path8334" />
    </g>
    <g
       id="g8336"
       transform="matrix(1.25,0,0,-1.25,240.65301,573.54872)">
      <path
         inkscape:connector-curvature="0"
         d="M 0,0 C 0,0 -1.329,1.871 -3.127,1.205 -4.01,0.88 -4.364,-0.113 -4.31,-0.966 c 0.082,-1.329 0.956,-2.343 1.933,-3.165 0.398,-0.336 2.158,-1.878 2.383,-1.975 0.19,-0.081 0.372,0.047 0.519,0.156 0.614,0.451 1.222,0.922 1.763,1.456 0.615,0.609 1.151,1.302 1.542,2.076 0.226,0.444 0.382,0.937 0.454,1.433 0,0 0.652,2.228 -0.898,2.781 C 1.835,2.351 0.246,0.763 0,0"
         style="fill:#e6232a;fill-opacity:1;fill-rule:nonzero;stroke:none"
         id="path8338" />
    </g>
    <g
       id="g8340"
       transform="matrix(1.25,0,0,-1.25,238.17626,574.50323)">
      <path
         inkscape:connector-curvature="0"
         d="m 0,0 c 0,-0.415 -0.337,-0.751 -0.751,-0.751 -0.416,0 -0.751,0.336 -0.751,0.751 0,0.413 0.335,0.751 0.751,0.751 C -0.337,0.751 0,0.413 0,0"
         style="fill:#ffffff;fill-opacity:1;fill-rule:nonzero;stroke:none"
         id="path8342" />
    </g>
    <g
       id="g8344"
       transform="matrix(1.25,0,0,-1.25,217.47913,573.5646)">
      <path
         inkscape:connector-curvature="0"
         d="M 0,0 C 0,0 -0.325,-6.661 -0.283,-7.35"
         style="fill:none;stroke:#332d2b;stroke-width:1.00800002;stroke-linecap:round;stroke-linejoin:miter;stroke-miterlimit:4;stroke-opacity:1;stroke-dasharray:none"
         id="path8346" />
    </g>
    <g
       id="g8348"
       transform="matrix(1.25,0,0,-1.25,256.90063,572.50373)">
      <path
         inkscape:connector-curvature="0"
         d="M 0,0 0.42,-7.091"
         style="fill:none;stroke:#332d2b;stroke-width:1.00800002;stroke-linecap:round;stroke-linejoin:miter;stroke-miterlimit:4;stroke-opacity:1;stroke-dasharray:none"
         id="path8350" />
    </g>
    <g
       id="g8352"
       transform="matrix(1.25,0,0,-1.25,210.12326,572.04235)">
      <path
         inkscape:connector-curvature="0"
         d="M 0,0 5.69,-5.516"
         style="fill:none;stroke:#332d2b;stroke-width:1.00800002;stroke-linecap:round;stroke-linejoin:miter;stroke-miterlimit:4;stroke-opacity:1;stroke-dasharray:none"
         id="path8354" />
    </g>
    <g
       id="g8356"
       transform="matrix(1.25,0,0,-1.25,266.42451,570.9071)">
      <path
         inkscape:connector-curvature="0"
         d="M 0,0 -7.199,-5.535"
         style="fill:none;stroke:#332d2b;stroke-width:1.00800002;stroke-linecap:round;stroke-linejoin:miter;stroke-miterlimit:4;stroke-opacity:1;stroke-dasharray:none"
         id="path8358" />
    </g>
    <g
       id="g8360"
       transform="matrix(1.25,0,0,-1.25,224.46526,593.64385)">
      <path
         inkscape:connector-curvature="0"
         d="m 0,0 0,5.414 c 0,0 0.664,1.454 1.81,1.109 0,0 2.178,-0.515 0.184,-3.398 0,0 1.509,-0.321 0.841,-1.896 C 2.166,-0.346 0.369,-0.469 0,0 z"
         style="fill:none;stroke:#332d2b;stroke-width:1.00800002;stroke-linecap:round;stroke-linejoin:round;stroke-miterlimit:4;stroke-opacity:1;stroke-dasharray:none"
         id="path8362" />
    </g>
    <g
       id="g8364"
       transform="matrix(1.25,0,0,-1.25,224.46526,590.13922)">
      <path
         inkscape:connector-curvature="0"
         d="M 0,0 C 0,0 1.182,0.444 1.994,0.321"
         style="fill:none;stroke:#332d2b;stroke-width:1.00800002;stroke-linecap:round;stroke-linejoin:round;stroke-miterlimit:4;stroke-opacity:1;stroke-dasharray:none"
         id="path8366" />
    </g>
    <g
       id="g8368"
       transform="matrix(1.25,0,0,-1.25,229.97426,593.9466)">
      <path
         inkscape:connector-curvature="0"
         d="m 0,0 -0.16,5.656 c 0,0 0.455,1.429 2.08,0.961 C 3.545,6.15 2.61,3.762 0.714,3.046 c 0,0 0.905,-1.994 2.04,-2.756"
         style="fill:none;stroke:#332d2b;stroke-width:1.00800002;stroke-linecap:round;stroke-linejoin:round;stroke-miterlimit:4;stroke-opacity:1;stroke-dasharray:none"
         id="path8370" />
    </g>
    <g
       id="g8372"
       transform="matrix(1.25,0,0,-1.25,236.15963,592.90535)">
      <path
         inkscape:connector-curvature="0"
         d="M 0,0 C 0,0 -1.625,0.269 -1.454,2.954 -1.28,5.639 -0.068,5.661 0.15,5.712 0.369,5.76 1.526,5.712 1.673,3.396 1.821,1.082 0.837,-0.101 0,0 z"
         style="fill:none;stroke:#332d2b;stroke-width:1.00800002;stroke-linecap:round;stroke-linejoin:round;stroke-miterlimit:4;stroke-opacity:1;stroke-dasharray:none"
         id="path8374" />
    </g>
    <g
       id="g8376"
       transform="matrix(1.25,0,0,-1.25,239.57513,586.10485)">
      <path
         inkscape:connector-curvature="0"
         d="m 0,0 c 0,0 0.229,-5.146 0.914,-5.119 0.686,0.022 1.4,4.774 1.4,4.774 0,0 0.739,-4.407 1.354,-4.629 0.615,-0.22 0.69,5.519 0.69,5.519"
         style="fill:none;stroke:#332d2b;stroke-width:1.00800002;stroke-linecap:round;stroke-linejoin:round;stroke-miterlimit:4;stroke-opacity:1;stroke-dasharray:none"
         id="path8378" />
    </g>
    <g
       id="g8380"
       transform="matrix(1.25,0,0,-1.25,247.29976,593.18247)">
      <path
         inkscape:connector-curvature="0"
         d="m 0,0 0,5.662 2.536,-4.704 0,6.058"
         style="fill:none;stroke:#332d2b;stroke-width:1.00800002;stroke-linecap:round;stroke-linejoin:round;stroke-miterlimit:4;stroke-opacity:1;stroke-dasharray:none"
         id="path8382" />
    </g>
    <g
       id="g8384"
       transform="matrix(1.25,0,0,-1.25,225.57251,517.5086)">
      <path
         inkscape:connector-curvature="0"
         d="m 0,0 -0.961,3.154 c 0,0 -2.338,14.426 0.961,15.164 C 3.299,19.057 3.806,4.406 3.806,4.406 l 0,-1.552 L 0,0 z"
         style="fill:#ee8293;fill-opacity:1;fill-rule:nonzero;stroke:none"
         id="path8386" />
    </g>
    <g
       id="g8388"
       transform="matrix(1.25,0,0,-1.25,241.88351,515.65922)">
      <path
         inkscape:connector-curvature="0"
         d="m 0,0 -0.49,3.217 c 0,0 0.343,7.86 2.409,12.539 C 3.989,20.433 5.27,14.131 5.22,11.618 5.17,9.108 5.071,3.592 3.645,0.933 2.216,-1.726 0,0 0,0"
         style="fill:#ee8293;fill-opacity:1;fill-rule:nonzero;stroke:none"
         id="path8390" />
    </g>
    <g
       id="g8392"
       transform="matrix(1.25,0,0,-1.25,218.36051,598.37897)">
      <path
         inkscape:connector-curvature="0"
         d="M 0,0 C 0,0 24.136,-2.011 30.832,1.849"
         style="fill:none;stroke:#332d2b;stroke-width:1.00800002;stroke-linecap:round;stroke-linejoin:miter;stroke-miterlimit:4;stroke-opacity:1;stroke-dasharray:none"
         id="path8394" />
    </g>
    <g
       id="g8396"
       transform="matrix(1.25,0,0,-1.25,270.62739,539.3141)">
      <path
         inkscape:connector-curvature="0"
         d="m 0,0 c 0,-12.664 -11.949,-22.933 -26.687,-22.933 -14.74,0 -26.688,10.269 -26.688,22.933 0,12.667 11.948,22.935 26.688,22.935 C -11.949,22.935 0,12.667 0,0"
         style="fill:#ffffff;fill-opacity:1;fill-rule:nonzero;stroke:none"
         id="path8398" />
    </g>
    <g
       id="g8400"
       transform="matrix(1.25,0,0,-1.25,270.62739,539.3141)">
      <path
         inkscape:connector-curvature="0"
         d="m 0,0 c 0,-12.664 -11.949,-22.933 -26.687,-22.933 -14.74,0 -26.688,10.269 -26.688,22.933 0,12.667 11.948,22.935 26.688,22.935 C -11.949,22.935 0,12.667 0,0 z"
         style="fill:none;stroke:#332d2b;stroke-width:1.00800002;stroke-linecap:butt;stroke-linejoin:miter;stroke-miterlimit:4;stroke-opacity:1;stroke-dasharray:none"
         id="path8402" />
    </g>
    <g
       id="g8404"
       transform="matrix(1.25,0,0,-1.25,225.11101,542.42685)">
      <path
         inkscape:connector-curvature="0"
         d="m 0,0 c 0,-1.012 -1.464,-1.83 -3.269,-1.83 -1.804,0 -3.267,0.818 -3.267,1.83 0,1.01 1.463,1.827 3.267,1.827 C -1.464,1.827 0,1.01 0,0"
         style="fill:#f7c4c5;fill-opacity:1;fill-rule:nonzero;stroke:none"
         id="path8406" />
    </g>
    <g
       id="g8408"
       transform="matrix(1.25,0,0,-1.25,260.61401,541.33435)">
      <path
         inkscape:connector-curvature="0"
         d="m 0,0 c 0,-1.012 -1.463,-1.83 -3.268,-1.83 -1.804,0 -3.267,0.818 -3.267,1.83 0,1.009 1.463,1.827 3.267,1.827 C -1.463,1.827 0,1.009 0,0"
         style="fill:#f7c4c5;fill-opacity:1;fill-rule:nonzero;stroke:none"
         id="path8410" />
    </g>
    <g
       id="g8412"
       transform="matrix(1.25,0,0,-1.25,241.82126,541.88235)">
      <path
         inkscape:connector-curvature="0"
         d="m 0,0 c 0,-1.249 -1.233,-2.266 -2.756,-2.266 -1.523,0 -2.758,1.017 -2.758,2.266 0,1.252 1.235,2.266 2.758,2.266 C -1.233,2.266 0,1.252 0,0 z"
         style="fill:none;stroke:#332d2b;stroke-width:1.00800002;stroke-linecap:round;stroke-linejoin:round;stroke-miterlimit:4;stroke-opacity:1;stroke-dasharray:none"
         id="path8414" />
    </g>
    <g
       id="g8416"
       transform="matrix(1.25,0,0,-1.25,222.80388,546.25247)">
      <path
         inkscape:connector-curvature="0"
         d="M 0,0 C 0,0 13.786,-8.716 25.16,1.477"
         style="fill:none;stroke:#332d2b;stroke-width:1.00800002;stroke-linecap:round;stroke-linejoin:round;stroke-miterlimit:4;stroke-opacity:1;stroke-dasharray:none"
         id="path8418" />
    </g>
    <g
       id="g8420"
       transform="matrix(1.25,0,0,-1.25,232.22038,525.0941)">
      <path
         inkscape:connector-curvature="0"
         d="M 0,0 3.322,-7.35"
         style="fill:none;stroke:#332d2b;stroke-width:1.00800002;stroke-linecap:round;stroke-linejoin:round;stroke-miterlimit:4;stroke-opacity:1;stroke-dasharray:none"
         id="path8422" />
    </g>
    <g
       id="g8424"
       transform="matrix(1.25,0,0,-1.25,244.31389,524.4471)">
      <path
         inkscape:connector-curvature="0"
         d="M 0,0 -3.434,-7.57"
         style="fill:none;stroke:#332d2b;stroke-width:1.00800002;stroke-linecap:round;stroke-linejoin:round;stroke-miterlimit:4;stroke-opacity:1;stroke-dasharray:none"
         id="path8426" />
    </g>
    <g
       id="g8428"
       transform="matrix(1.25,0,0,-1.25,249.25288,528.6951)">
      <path
         inkscape:connector-curvature="0"
         d="M 0,0 -5.501,-5.539 0.334,-9.158"
         style="fill:none;stroke:#332d2b;stroke-width:1.00800002;stroke-linecap:round;stroke-linejoin:round;stroke-miterlimit:4;stroke-opacity:1;stroke-dasharray:none"
         id="path8430" />
    </g>
    <g
       id="g8432"
       transform="matrix(1.25,0,0,-1.25,253.08588,534.6961)">
      <path
         inkscape:connector-curvature="0"
         d="M 0,0 -8.567,-0.738"
         style="fill:none;stroke:#332d2b;stroke-width:1.00800002;stroke-linecap:round;stroke-linejoin:round;stroke-miterlimit:4;stroke-opacity:1;stroke-dasharray:none"
         id="path8434" />
    </g>
    <g
       id="g8436"
       transform="matrix(1.25,0,0,-1.25,226.82001,528.6951)">
      <path
         inkscape:connector-curvature="0"
         d="M 0,0 5.576,-5.539 -0.148,-9.158"
         style="fill:none;stroke:#332d2b;stroke-width:1.00800002;stroke-linecap:round;stroke-linejoin:round;stroke-miterlimit:4;stroke-opacity:1;stroke-dasharray:none"
         id="path8438" />
    </g>
    <g
       id="g8440"
       transform="matrix(1.25,0,0,-1.25,222.80388,534.6961)">
      <path
         inkscape:connector-curvature="0"
         d="M 0,0 8.789,-0.738"
         style="fill:none;stroke:#332d2b;stroke-width:1.00800002;stroke-linecap:round;stroke-linejoin:round;stroke-miterlimit:4;stroke-opacity:1;stroke-dasharray:none"
         id="path8442" />
    </g>
    <g
       id="g8444"
       transform="matrix(1.25,0,0,-1.25,237.94301,544.71447)">
      <path
         inkscape:connector-curvature="0"
         d="M 0,0 0,-4.699"
         style="fill:none;stroke:#332d2b;stroke-width:1.00800002;stroke-linecap:round;stroke-linejoin:round;stroke-miterlimit:4;stroke-opacity:1;stroke-dasharray:none"
         id="path8446" />
    </g>
    <g
       id="g8448"
       transform="matrix(1.25,0,0,-1.25,291.55388,518.24598)">
      <path
         inkscape:connector-curvature="0"
         d="m 0,0 -1.329,2.299 c 0,0 -2.856,6.441 2.535,9.469 C 6.599,14.795 11.711,9.035 11.665,6.671 11.622,4.308 0,0 0,0"
         style="fill:#6d5044;fill-opacity:1;fill-rule:nonzero;stroke:none"
         id="path8450" />
    </g>
    <g
       id="g8452"
       transform="matrix(1.25,0,0,-1.25,291.55388,518.24598)">
      <path
         inkscape:connector-curvature="0"
         d="m 0,0 -1.329,2.299 c 0,0 -2.856,6.441 2.535,9.469 C 6.599,14.795 11.711,9.035 11.665,6.671 11.622,4.308 0,0 0,0 z"
         style="fill:none;stroke:#332d2b;stroke-width:1.00800002;stroke-linecap:round;stroke-linejoin:miter;stroke-miterlimit:4;stroke-opacity:1;stroke-dasharray:none"
         id="path8454" />
    </g>
    <g
       id="g8456"
       transform="matrix(1.25,0,0,-1.25,293.95263,514.61435)">
      <path
         inkscape:connector-curvature="0"
         d="m 0,0 -0.585,1.239 c 0,0 -0.448,4.717 2.31,5.654 2.758,0.936 4.056,-2.43 4.046,-2.744 -0.009,-0.31 0,-1.343 0,-1.343 L 0,0 z"
         style="fill:#543d37;fill-opacity:1;fill-rule:nonzero;stroke:none"
         id="path8458" />
    </g>
    <g
       id="g8460"
       transform="matrix(1.25,0,0,-1.25,320.559,511.16948)">
      <path
         inkscape:connector-curvature="0"
         d="m 0,0 0,2.66 c 0,0 2.253,5.859 7.177,4.921 4.924,-0.934 5.76,-4.333 5.416,-6.448 -0.345,-2.117 -2.068,-3.645 -2.068,-3.645 L 0,0 z"
         style="fill:#6d5044;fill-opacity:1;fill-rule:nonzero;stroke:none"
         id="path8462" />
    </g>
    <g
       id="g8464"
       transform="matrix(1.25,0,0,-1.25,320.559,511.16948)">
      <path
         inkscape:connector-curvature="0"
         d="m 0,0 0,2.66 c 0,0 2.253,5.859 7.177,4.921 4.924,-0.934 5.76,-4.333 5.416,-6.448 -0.345,-2.117 -2.068,-3.645 -2.068,-3.645 L 0,0 z"
         style="fill:none;stroke:#332d2b;stroke-width:1.00800002;stroke-linecap:round;stroke-linejoin:miter;stroke-miterlimit:4;stroke-opacity:1;stroke-dasharray:none"
         id="path8466" />
    </g>
    <g
       id="g8468"
       transform="matrix(1.25,0,0,-1.25,323.31412,510.20397)">
      <path
         inkscape:connector-curvature="0"
         d="m 0,0 0,1.264 c 0,0 1.231,3.628 3.643,3.233 C 6.057,4.102 7.089,3.019 7.287,1.592 7.483,0.163 6.843,-1.805 6.843,-1.805 L 0,0 z"
         style="fill:#543d37;fill-opacity:1;fill-rule:nonzero;stroke:none"
         id="path8470" />
    </g>
    <g
       id="g8472"
       transform="matrix(1.25,0,0,-1.25,334.69963,632.37685)">
      <path
         inkscape:connector-curvature="0"
         d="m 0,0 c 0,-3.63 -7.985,-3.507 -17.836,-3.507 -9.851,0 -18.804,-1.909 -17.839,3.507 0.371,2.069 7.988,3.506 17.839,3.506 C -7.985,3.506 0,1.936 0,0"
         style="fill:#b6b7b8;fill-opacity:1;fill-rule:nonzero;stroke:none"
         id="path8474" />
    </g>
    <g
       id="g8476"
       transform="matrix(1.25,0,0,-1.25,295.64814,555.60672)">
      <path
         inkscape:connector-curvature="0"
         d="m 0,0 -4.101,-3.965 c 0,0 -5.722,-7.337 -6.833,-18.045 -1.106,-10.71 3.843,-15.955 7.83,-15.882 0,0 0.617,-11.546 1.798,-15.781 0,0 -5.17,-6.056 1.306,-9.059 6.474,-3.004 11.053,1.625 12.431,7.09 1.379,5.465 1.625,12.508 1.872,16.25 0,0 0.639,-14.231 1.723,-17.431 1.084,-3.202 3.842,-7.239 8.519,-6.649 4.677,0.593 6.696,2.512 7.288,5.27 0.59,2.758 -2.266,5.22 -2.266,5.22 l 0.836,15.706 c 0,0 6.402,-0.54 8.077,9.406 1.673,9.947 -4.923,24.405 -4.923,24.405 L 23.855,0 0,0 z"
         style="fill:none;stroke:#b6b7b8;stroke-width:0.50400001;stroke-linecap:butt;stroke-linejoin:miter;stroke-miterlimit:4;stroke-opacity:1;stroke-dasharray:none"
         id="path8478" />
    </g>
    <g
       id="g8480"
       transform="matrix(1.25,0,0,-1.25,292.32288,577.82597)">
      <path
         inkscape:connector-curvature="0"
         d="M 0,0 -6.696,3.228 C -7.405,1.002 -7.989,-1.506 -8.273,-4.234 -9.38,-14.944 -4.431,-20.189 -0.444,-20.116 -1.107,-16.569 0,0 0,0"
         style="fill:#6d5044;fill-opacity:1;fill-rule:nonzero;stroke:none"
         id="path8482" />
    </g>
    <g
       id="g8484"
       transform="matrix(1.25,0,0,-1.25,292.32288,577.82597)">
      <path
         inkscape:connector-curvature="0"
         d="M 0,0 -6.696,3.228 C -7.405,1.002 -7.989,-1.506 -8.273,-4.234 -9.38,-14.944 -4.431,-20.189 -0.444,-20.116 -1.107,-16.569 0,0 0,0 z"
         style="fill:none;stroke:#332d2b;stroke-width:1.00800002;stroke-linecap:round;stroke-linejoin:round;stroke-miterlimit:4;stroke-opacity:1;stroke-dasharray:none"
         id="path8486" />
    </g>
    <g
       id="g8488"
       transform="matrix(1.25,0,0,-1.25,333.96237,576.93372)">
      <path
         inkscape:connector-curvature="0"
         d="m 0,0 c 0,0 0.062,-14.424 -0.248,-20.215 0,0 6.401,-0.54 8.077,9.406 0.667,3.968 0.017,8.661 -1.006,12.862 L 0,0 z"
         style="fill:#6d5044;fill-opacity:1;fill-rule:nonzero;stroke:none"
         id="path8490" />
    </g>
    <g
       id="g8492"
       transform="matrix(1.25,0,0,-1.25,333.96237,576.93372)">
      <path
         inkscape:connector-curvature="0"
         d="m 0,0 c 0,0 0.062,-14.424 -0.248,-20.215 0,0 6.401,-0.54 8.077,9.406 0.667,3.968 0.017,8.661 -1.006,12.862 L 0,0 z"
         style="fill:none;stroke:#332d2b;stroke-width:1.00800002;stroke-linecap:round;stroke-linejoin:round;stroke-miterlimit:4;stroke-opacity:1;stroke-dasharray:none"
         id="path8494" />
    </g>
    <g
       id="g8496"
       transform="matrix(1.25,0,0,-1.25,333.65225,596.9081)">
      <path
         inkscape:connector-curvature="0"
         d="m 0,0 0.145,0.088 c 0.142,6.658 0.103,15.891 0.103,15.891 l 6.823,2.053 C 5.534,24.355 3.153,29.576 3.153,29.576 l -9.701,3.465 -23.855,0 -4.101,-3.965 c 0,0 -3.176,-4.074 -5.256,-10.583 l 6.697,-3.227 c 0,0 -0.644,-9.634 -0.655,-15.782 C -19.084,-6.595 0,0 0,0"
         style="fill:#ffffff;fill-opacity:1;fill-rule:nonzero;stroke:none"
         id="path8498" />
    </g>
    <g
       id="g8500"
       transform="matrix(1.25,0,0,-1.25,333.65225,596.9081)">
      <path
         inkscape:connector-curvature="0"
         d="m 0,0 0.145,0.088 c 0.142,6.658 0.103,15.891 0.103,15.891 l 6.823,2.053 C 5.534,24.355 3.153,29.576 3.153,29.576 l -9.701,3.465 -23.855,0 -4.101,-3.965 c 0,0 -3.176,-4.074 -5.256,-10.583 l 6.697,-3.227 c 0,0 -0.644,-9.634 -0.655,-15.782 C -19.084,-6.595 0,0 0,0 z"
         style="fill:none;stroke:#332d2b;stroke-width:1.00800002;stroke-linecap:round;stroke-linejoin:round;stroke-miterlimit:4;stroke-opacity:1;stroke-dasharray:none"
         id="path8502" />
    </g>
    <g
       id="g8504"
       transform="matrix(1.25,0,0,-1.25,333.833,596.79822)">
      <path
         inkscape:connector-curvature="0"
         d="m 0,0 -0.145,-0.088 c 0,0 -19.084,-6.595 -33.717,-0.516 -0.003,-1.913 0.053,-3.492 0.21,-4.334 0,0 0.617,-11.547 1.798,-15.782 0,0 -5.169,-6.055 1.306,-9.059 6.474,-3.004 11.053,1.625 12.431,7.091 1.379,5.464 1.625,12.507 1.872,16.25 0,0 0.64,-14.232 1.724,-17.432 1.083,-3.202 3.841,-7.238 8.518,-6.649 4.677,0.593 6.696,2.512 7.288,5.27 0.59,2.758 -2.265,5.22 -2.265,5.22 l 0.835,15.706 C -0.081,-3.165 -0.034,-1.661 0,0"
         style="fill:#6d5044;fill-opacity:1;fill-rule:nonzero;stroke:none"
         id="path8506" />
    </g>
    <g
       id="g8508"
       transform="matrix(1.25,0,0,-1.25,333.833,596.79822)">
      <path
         inkscape:connector-curvature="0"
         d="m 0,0 -0.145,-0.088 c 0,0 -19.084,-6.595 -33.717,-0.516 -0.003,-1.913 0.053,-3.492 0.21,-4.334 0,0 0.617,-11.547 1.798,-15.782 0,0 -5.169,-6.055 1.306,-9.059 6.474,-3.004 11.053,1.625 12.431,7.091 1.379,5.464 1.625,12.507 1.872,16.25 0,0 0.64,-14.232 1.724,-17.432 1.083,-3.202 3.841,-7.238 8.518,-6.649 4.677,0.593 6.696,2.512 7.288,5.27 0.59,2.758 -2.265,5.22 -2.265,5.22 l 0.835,15.706 C -0.081,-3.165 -0.034,-1.661 0,0 z"
         style="fill:none;stroke:#332d2b;stroke-width:1.00800002;stroke-linecap:round;stroke-linejoin:round;stroke-miterlimit:4;stroke-opacity:1;stroke-dasharray:none"
         id="path8510" />
    </g>
    <g
       id="g8512"
       transform="matrix(1.25,0,0,-1.25,348.91962,537.72598)">
      <path
         inkscape:connector-curvature="0"
         d="m 0,0 c 0,-13.366 -12.634,-24.203 -28.215,-24.203 -15.583,0 -28.215,10.837 -28.215,24.203 0,13.366 12.632,24.201 28.215,24.201 C -12.634,24.201 0,13.366 0,0"
         style="fill:#6d5044;fill-opacity:1;fill-rule:nonzero;stroke:none"
         id="path8514" />
    </g>
    <g
       id="g8516"
       transform="matrix(1.25,0,0,-1.25,348.91962,537.72598)">
      <path
         inkscape:connector-curvature="0"
         d="m 0,0 c 0,-13.366 -12.634,-24.203 -28.215,-24.203 -15.583,0 -28.215,10.837 -28.215,24.203 0,13.366 12.632,24.201 28.215,24.201 C -12.634,24.201 0,13.366 0,0 z"
         style="fill:none;stroke:#332d2b;stroke-width:1.00800002;stroke-linecap:round;stroke-linejoin:miter;stroke-miterlimit:4;stroke-opacity:1;stroke-dasharray:none"
         id="path8518" />
    </g>
    <g
       id="g8520"
       transform="matrix(1.25,0,0,-1.25,312.57438,552.25222)">
      <path
         inkscape:connector-curvature="0"
         d="m 0,0 c 0,0 -5.28,0.037 -6.816,5.732 -1.536,5.695 2.748,9.363 5.38,10.005 C 1.199,16.383 4.758,15.588 7.005,12.22 9.252,8.854 7.491,5.523 6.03,3.594 4.57,1.664 2.099,-0.074 0,0"
         style="fill:#e0c7ba;fill-opacity:1;fill-rule:nonzero;stroke:none"
         id="path8522" />
    </g>
    <g
       id="g8524"
       transform="matrix(1.25,0,0,-1.25,310.68112,530.32597)">
      <path
         inkscape:connector-curvature="0"
         d="m 0,0 c 0,-1.108 -0.813,-2.006 -1.817,-2.006 -1.004,0 -1.82,0.898 -1.82,2.006 0,1.108 0.816,2.007 1.82,2.007 C -0.813,2.007 0,1.108 0,0"
         style="fill:#332d2b;fill-opacity:1;fill-rule:nonzero;stroke:none"
         id="path8526" />
    </g>
    <g
       id="g8528"
       transform="matrix(1.25,0,0,-1.25,320.559,530.83385)">
      <path
         inkscape:connector-curvature="0"
         d="m 0,0 c 0,-1.109 -0.813,-2.007 -1.817,-2.007 -1.003,0 -1.82,0.898 -1.82,2.007 0,1.108 0.817,2.006 1.82,2.006 C -0.813,2.006 0,1.108 0,0"
         style="fill:#332d2b;fill-opacity:1;fill-rule:nonzero;stroke:none"
         id="path8530" />
    </g>
    <g
       id="g8532"
       transform="matrix(1.25,0,0,-1.25,313.651,538.66585)">
      <path
         inkscape:connector-curvature="0"
         d="m 0,0 c 0,0 -2.659,2.068 -2.587,2.585 0.075,0.517 0.444,0.961 2.144,1.071 C 1.255,3.767 2.231,3.508 1.89,2.475 1.551,1.44 0.147,0 0.147,0"
         style="fill:#332d2b;fill-opacity:1;fill-rule:nonzero;stroke:none"
         id="path8534" />
    </g>
    <g
       id="g8536"
       transform="matrix(1.25,0,0,-1.25,310.68112,547.1131)">
      <path
         inkscape:connector-curvature="0"
         d="M 0,0 2.597,3.73 4.592,1.366"
         style="fill:none;stroke:#332d2b;stroke-width:1.00800002;stroke-linecap:round;stroke-linejoin:miter;stroke-miterlimit:4;stroke-opacity:1;stroke-dasharray:none"
         id="path8538" />
    </g>
    <g
       id="g8540"
       transform="matrix(1.25,0,0,-1.25,313.651,536.86535)">
      <path
         inkscape:connector-curvature="0"
         d="M 0,0 0.136,-4.594"
         style="fill:none;stroke:#332d2b;stroke-width:1.00800002;stroke-linecap:round;stroke-linejoin:miter;stroke-miterlimit:4;stroke-opacity:1;stroke-dasharray:none"
         id="path8542" />
    </g>
    <g
       id="g8544"
       transform="matrix(1.25,0,0,-1.25,304.08075,572.7271)">
      <path
         inkscape:connector-curvature="0"
         d="M 0,0 3.618,0"
         style="fill:none;stroke:#332d2b;stroke-width:1.00800002;stroke-linecap:round;stroke-linejoin:miter;stroke-miterlimit:4;stroke-opacity:1;stroke-dasharray:none"
         id="path8546" />
    </g>
    <g
       id="g8548"
       transform="matrix(1.25,0,0,-1.25,304.08075,580.52985)">
      <path
         inkscape:connector-curvature="0"
         d="M 0,0 4.873,0"
         style="fill:none;stroke:#332d2b;stroke-width:1.00800002;stroke-linecap:round;stroke-linejoin:miter;stroke-miterlimit:4;stroke-opacity:1;stroke-dasharray:none"
         id="path8550" />
    </g>
    <g
       id="g8552"
       transform="matrix(1.25,0,0,-1.25,306.34025,572.7271)">
      <path
         inkscape:connector-curvature="0"
         d="M 0,0 0,-6.059"
         style="fill:none;stroke:#332d2b;stroke-width:1.00800002;stroke-linecap:round;stroke-linejoin:miter;stroke-miterlimit:4;stroke-opacity:1;stroke-dasharray:none"
         id="path8554" />
    </g>
    <g
       id="g8556"
       transform="matrix(1.25,0,0,-1.25,318.00525,573.77323)">
      <path
         inkscape:connector-curvature="0"
         d="m 0,0 c 0,0 -1.328,1.869 -3.127,1.203 -0.881,-0.323 -1.237,-1.315 -1.184,-2.171 0.082,-1.331 0.957,-2.345 1.933,-3.165 0.399,-0.336 2.159,-1.875 2.385,-1.973 0.189,-0.083 0.371,0.047 0.52,0.157 0.613,0.45 1.221,0.92 1.762,1.456 0.615,0.606 1.151,1.299 1.541,2.075 0.226,0.444 0.382,0.937 0.454,1.434 0,0 0.653,2.225 -0.898,2.78 C 1.834,2.349 0.246,0.764 0,0"
         style="fill:#e6232a;fill-opacity:1;fill-rule:nonzero;stroke:none"
         id="path8558" />
    </g>
    <g
       id="g8560"
       transform="matrix(1.25,0,0,-1.25,315.5285,574.72785)">
      <path
         inkscape:connector-curvature="0"
         d="m 0,0 c 0,-0.415 -0.337,-0.751 -0.751,-0.751 -0.414,0 -0.751,0.336 -0.751,0.751 0,0.413 0.337,0.751 0.751,0.751 C -0.337,0.751 0,0.413 0,0"
         style="fill:#ffffff;fill-opacity:1;fill-rule:nonzero;stroke:none"
         id="path8562" />
    </g>
    <g
       id="g8564"
       transform="matrix(1.25,0,0,-1.25,305.09513,585.0306)">
      <path
         inkscape:connector-curvature="0"
         d="m 0,0 c 0,0 -2.56,-0.935 -2.56,-3.986 0,-3.055 3.496,-2.216 3.496,-2.216"
         style="fill:none;stroke:#332d2b;stroke-width:1.00800002;stroke-linecap:round;stroke-linejoin:round;stroke-miterlimit:4;stroke-opacity:1;stroke-dasharray:none"
         id="path8566" />
    </g>
    <g
       id="g8568"
       transform="matrix(1.25,0,0,-1.25,307.434,589.12235)">
      <path
         inkscape:connector-curvature="0"
         d="M 0,0 C 0,0 0.051,3.273 1.799,3.472 3.546,3.67 4.038,0.764 3.939,-0.492 3.841,-1.748 3.815,-3.617 1.747,-3.421 -0.32,-3.225 0,0 0,0 z"
         style="fill:none;stroke:#332d2b;stroke-width:1.00800002;stroke-linecap:round;stroke-linejoin:round;stroke-miterlimit:4;stroke-opacity:1;stroke-dasharray:none"
         id="path8570" />
    </g>
    <g
       id="g8572"
       transform="matrix(1.25,0,0,-1.25,314.851,592.91635)">
      <path
         inkscape:connector-curvature="0"
         d="M 0,0 0.123,5.769 3.471,0 3.84,7.098"
         style="fill:none;stroke:#332d2b;stroke-width:1.00800002;stroke-linecap:round;stroke-linejoin:round;stroke-miterlimit:4;stroke-opacity:1;stroke-dasharray:none"
         id="path8574" />
    </g>
    <g
       id="g8576"
       transform="matrix(1.25,0,0,-1.25,321.56,583.11897)">
      <path
         inkscape:connector-curvature="0"
         d="M 0,0 1.404,-4.087 3.472,0.467"
         style="fill:none;stroke:#332d2b;stroke-width:1.00800002;stroke-linecap:round;stroke-linejoin:round;stroke-miterlimit:4;stroke-opacity:1;stroke-dasharray:none"
         id="path8578" />
    </g>
    <g
       id="g8580"
       transform="matrix(1.25,0,0,-1.25,323.12987,593.8001)">
      <path
         inkscape:connector-curvature="0"
         d="M 0,0 0.148,4.458"
         style="fill:none;stroke:#332d2b;stroke-width:1.00800002;stroke-linecap:round;stroke-linejoin:round;stroke-miterlimit:4;stroke-opacity:1;stroke-dasharray:none"
         id="path8582" />
    </g>
    <g
       id="g8584"
       transform="matrix(1.25,0,0,-1.25,293.24576,570.9071)">
      <path
         inkscape:connector-curvature="0"
         d="M 0,0 C 0,0 -0.554,-3.738 -0.738,-5.535"
         style="fill:none;stroke:#332d2b;stroke-width:1.00800002;stroke-linecap:round;stroke-linejoin:round;stroke-miterlimit:4;stroke-opacity:1;stroke-dasharray:none"
         id="path8586" />
    </g>
    <g
       id="g8588"
       transform="matrix(1.25,0,0,-1.25,333.65225,570.9071)">
      <path
         inkscape:connector-curvature="0"
         d="M 0,0 0.248,-4.821"
         style="fill:none;stroke:#332d2b;stroke-width:1.00800002;stroke-linecap:round;stroke-linejoin:round;stroke-miterlimit:4;stroke-opacity:1;stroke-dasharray:none"
         id="path8590" />
    </g>
  </g>
</svg>
